<svg width="19" height="19" viewBox="0 0 19 19" fill="none" xmlns="http://www.w3.org/2000/svg">
<path d="M13.7211 9.53258C13.7219 9.39809 13.6961 9.26477 13.6453 9.14026C13.5944 9.01575 13.5195 8.90251 13.4248 8.80702L7.29333 2.6756C7.1009 2.48317 6.83991 2.37506 6.56777 2.37506C6.29564 2.37506 6.03465 2.48317 5.84222 2.6756C5.64979 2.86802 5.54169 3.12901 5.54169 3.40115C5.54169 3.67328 5.64979 3.93427 5.84222 4.1267L11.2583 9.53258L5.85244 14.9385C5.68503 15.1339 5.59754 15.3854 5.60748 15.6426C5.61741 15.8998 5.72403 16.1438 5.90603 16.3258C6.08802 16.5077 6.33199 16.6144 6.58918 16.6243C6.84637 16.6342 7.09783 16.5468 7.29333 16.3793L13.4248 10.2479C13.6135 10.0576 13.72 9.80066 13.7211 9.53258Z" fill="#464646"/>
</svg>
