<svg width="19" height="19" viewBox="0 0 19 19" fill="none" xmlns="http://www.w3.org/2000/svg">
<path d="M5.27891 9.53258C5.27813 9.39809 5.30391 9.26477 5.35476 9.14026C5.40562 9.01575 5.48055 8.90251 5.57526 8.80702L11.7067 2.6756C11.8991 2.48317 12.1601 2.37506 12.4322 2.37506C12.7044 2.37506 12.9654 2.48317 13.1578 2.6756C13.3502 2.86802 13.4583 3.12901 13.4583 3.40115C13.4583 3.67328 13.3502 3.93427 13.1578 4.1267L7.7417 9.53258L13.1476 14.9385C13.315 15.1339 13.4025 15.3854 13.3925 15.6426C13.3826 15.8998 13.276 16.1438 13.094 16.3258C12.912 16.5077 12.668 16.6144 12.4108 16.6243C12.1536 16.6342 11.9022 16.5468 11.7067 16.3793L5.57526 10.2479C5.38647 10.0576 5.28004 9.80066 5.27891 9.53258Z" fill="#464646"/>
</svg>
