<svg width="24" height="24" viewBox="0 0 24 24" fill="none" xmlns="http://www.w3.org/2000/svg">
<path fill-rule="evenodd" clip-rule="evenodd" d="M19.2 11.1C19.2 11.3387 19.2948 11.5676 19.4636 11.7364C19.6324 11.9052 19.8613 12 20.1 12C20.3387 12 20.5676 11.9052 20.7364 11.7364C20.9052 11.5676 21 11.3387 21 11.1V3.9C21 3.66131 20.9052 3.43239 20.7364 3.2636C20.5676 3.09482 20.3387 3 20.1 3H12.9C12.6613 3 12.4324 3.09482 12.2636 3.2636C12.0948 3.43239 12 3.66131 12 3.9C12 4.13869 12.0948 4.36761 12.2636 4.5364C12.4324 4.70518 12.6613 4.8 12.9 4.8H19.2V11.1ZM4.8 12.9C4.8 12.6613 4.70518 12.4324 4.5364 12.2636C4.36761 12.0948 4.13869 12 3.9 12C3.66131 12 3.43239 12.0948 3.2636 12.2636C3.09482 12.4324 3 12.6613 3 12.9V20.1C3 20.3387 3.09482 20.5676 3.2636 20.7364C3.43239 20.9052 3.66131 21 3.9 21H11.1C11.3387 21 11.5676 20.9052 11.7364 20.7364C11.9052 20.5676 12 20.3387 12 20.1C12 19.8613 11.9052 19.6324 11.7364 19.4636C11.5676 19.2948 11.3387 19.2 11.1 19.2H4.8V12.9Z" fill="#464646"/>
</svg>
